<svg xmlns="http://www.w3.org/2000/svg" viewBox="0 0 409 116" width="409" height="116" role="img" aria-labelledby="t"><title id="t">KUSAK · SŌ Studio</title><g transform="translate(0 6) scale(1.04) rotate(-2 50 50)"><mask id="sc" maskUnits="userSpaceOnUse" x="0" y="0" width="100" height="100"><rect width="100" height="100" fill="#fff"/><path d="M10.40 10.40 L11.57 9.70 L13.63 9.59 L15.62 9.55 L17.70 9.63 L19.54 9.39 L21.64 9.49 L23.60 9.38 L25.74 9.57 L27.79 9.62 L29.68 9.36 L31.68 9.28 L33.73 9.34 L35.77 9.36 L37.80 9.35 L39.85 9.38 L41.93 9.63 L43.92 9.49 L45.96 9.57 L47.99 9.74 L50.00 9.74 L52.02 9.61 L54.04 9.62 L56.09 9.40 L58.14 9.28 L60.12 9.53 L62.21 9.29 L64.26 9.27 L66.28 9.29 L68.20 9.56 L70.19 9.63 L72.21 9.62 L74.22 9.63 L76.24 9.62 L78.39 9.45 L80.50 9.34 L82.51 9.37 L84.42 9.51 L86.50 9.44 L88.46 9.67 L89.33 10.67 L90.28 11.59 L90.65 13.41 L90.61 15.48 L90.60 17.52 L90.49 19.63 L90.37 21.74 L90.62 23.60 L90.43 25.74 L90.63 27.65 L90.71 29.64 L90.45 31.80 L90.45 33.82 L90.71 35.75 L90.61 37.82 L90.34 39.92 L90.32 41.94 L90.33 43.95 L90.70 45.93 L90.65 47.97 L90.32 50.00 L90.66 52.03 L90.74 54.07 L90.58 56.09 L90.43 58.09 L90.52 60.13 L90.32 62.10 L90.27 64.09 L90.72 66.29 L90.57 68.26 L90.51 70.26 L90.69 72.38 L90.47 74.28 L90.66 76.43 L90.63 78.44 L90.38 80.29 L90.40 82.32 L90.42 84.36 L90.40 86.36 L90.26 88.39 L89.39 89.39 L88.33 90.20 L86.33 90.36 L84.56 90.66 L82.35 90.44 L80.36 90.48 L78.37 90.53 L76.44 90.67 L74.28 90.47 L72.38 90.68 L70.25 90.50 L68.23 90.51 L66.20 90.51 L64.10 90.27 L62.14 90.47 L60.09 90.35 L58.05 90.26 L56.10 90.65 L54.03 90.34 L52.02 90.49 L50.00 90.61 L47.97 90.53 L45.96 90.41 L43.92 90.51 L41.89 90.53 L39.84 90.64 L37.91 90.31 L35.82 90.53 L33.85 90.38 L31.82 90.40 L29.69 90.62 L27.72 90.50 L25.68 90.53 L23.60 90.61 L21.53 90.67 L19.64 90.48 L17.56 90.54 L15.57 90.50 L13.55 90.50 L11.57 90.30 L10.54 89.46 L9.76 88.37 L9.51 86.44 L9.33 84.57 L9.42 82.46 L9.35 80.49 L9.32 78.48 L9.60 76.26 L9.47 74.32 L9.31 72.38 L9.35 70.33 L9.67 68.15 L9.68 66.13 L9.53 64.17 L9.70 62.09 L9.63 60.09 L9.71 58.06 L9.42 56.09 L9.36 54.06 L9.30 52.03 L9.67 50.00 L9.39 47.97 L9.42 45.94 L9.68 43.95 L9.31 41.86 L9.27 39.82 L9.63 37.89 L9.29 35.75 L9.55 33.82 L9.51 31.78 L9.28 29.64 L9.35 27.64 L9.65 25.79 L9.53 23.69 L9.49 21.65 L9.56 19.67 L9.62 17.70 L9.57 15.63 L9.42 13.48 L9.95 11.81Z" fill="none" stroke="#000" stroke-width="2.4"/><g fill="#000"><path d="M48.11 39.91Q48.31 39.65 48.76 39.13Q49.22 38.61 49.51 38.35Q49.8 38.09 50.07 38.09Q50.46 38.09 52.11 39.22Q53.77 40.36 55.2 41.63Q56.64 42.9 56.64 43.36Q56.38 43.75 55.69 44.14Q55.01 44.53 54.1 44.79V49.15L54.16 51.81Q54.23 54.74 54.42 57.41Q54.1 57.99 52.05 58.71Q50 59.42 48.44 59.42H47.27V57.47H33.87Q33.67 59.36 33.28 61.44L37.57 63.13H47.2L48.63 61.31Q48.89 60.99 49.32 60.5Q49.74 60.01 50 59.75Q50.26 59.49 50.52 59.49Q50.91 59.49 52.57 60.63Q54.23 61.77 55.69 63.04Q57.16 64.3 57.16 64.76Q56.31 65.87 54.75 66.13V70.48L54.81 73.22Q54.88 76.14 55.07 78.88Q54.75 79.46 52.67 80.15Q50.59 80.83 48.96 80.83Q47.59 80.83 47.59 79.53Q47.59 79.53 47.85 78.23V76.86H36.73V79.79Q36.73 80.05 36.05 80.54Q35.36 81.02 34.13 81.38Q32.89 81.74 31.33 81.74Q30.55 81.74 30.19 81.35Q29.83 80.96 29.83 80.44Q30.09 77.97 30.22 74.19V70.35Q27.23 76.14 21.96 79.98L21.37 79.33Q25.21 73.35 26.42 66.19Q27.62 59.03 27.62 50.32V40.43Q24.69 42.64 21.31 44.4L20.79 43.81Q25.47 39.32 29.7 31.97Q31.33 29.17 32.53 25.92Q33.74 22.67 34.13 20Q39.92 21.3 42.1 22.02Q44.27 22.73 44.27 23.19Q44.27 23.45 43.75 23.64L42.52 24.16Q50 25.53 53.42 28.26Q56.83 30.99 56.83 33.92Q56.83 35.61 55.76 36.78Q54.68 37.96 53.19 37.96Q51.89 37.96 50.78 37.05Q50 34.12 47.66 30.77Q45.32 27.42 41.93 24.81Q38.42 30.47 33.61 35.29H41.09L42.52 33.21Q42.78 32.88 43.2 32.3Q43.62 31.71 43.88 31.42Q44.14 31.12 44.41 31.12Q44.8 31.12 46.19 32.17Q47.59 33.21 48.83 34.41Q50.07 35.61 50.07 36.07Q49.8 37.11 48.37 37.11H32.95L32.76 36.13Q30.29 38.35 29.05 39.32L35.3 41.73H46.68ZM70.82 34.9Q70.82 26.7 69.97 21.56Q75.24 22.8 77.23 23.48Q79.21 24.16 79.21 24.68Q79.21 24.94 78.69 25.27L77.58 25.99V73.28Q77.58 76.14 76.97 77.84Q76.35 79.53 74.46 80.57Q72.58 81.61 68.8 82Q68.67 80.11 68.35 78.91Q68.02 77.71 67.31 76.86Q66.52 75.95 65.32 75.36Q64.12 74.78 62.04 74.45V73.54Q68.28 73.93 69.52 73.93Q70.23 73.93 70.53 73.67Q70.82 73.41 70.82 72.76ZM59.5 39.26Q59.5 31.06 58.65 25.92Q63.6 27.09 65.48 27.74Q67.37 28.39 67.37 28.85Q67.37 29.04 66.85 29.43L65.81 30.08V50.25Q65.94 58.32 66.33 65.54Q65.94 66.39 64.18 67.13Q62.43 67.88 60.73 67.88Q59.89 67.88 59.4 67.49Q58.91 67.1 58.91 66.58Q59.37 60.92 59.5 54.03ZM47.27 48.76V43.55H34.26V48.76ZM34.26 50.58Q34.26 52.92 34.06 55.65H47.27V50.58ZM36.73 64.95V74.97H47.85V64.95Z"/><circle cx="14" cy="86" r="1.4"/><circle cx="88" cy="20" r="1.1"/><circle cx="80" cy="84" r="0.9"/><circle cx="22" cy="15" r="0.8"/><circle cx="52" cy="92.5" r="1.0"/></g></mask><path d="M5.21 5.21 L6.44 4.50 L7.68 3.20 L10.41 3.42 L12.37 2.96 L14.85 3.14 L17.43 3.47 L19.44 2.99 L22.11 3.52 L24.19 3.08 L26.75 3.50 L29.07 3.49 L31.24 3.09 L33.41 2.60 L36.04 3.47 L38.34 3.35 L40.57 2.84 L42.86 2.42 L45.29 2.90 L47.66 3.13 L50.00 2.38 L52.32 3.59 L54.75 2.54 L57.01 3.27 L59.31 3.45 L61.63 3.48 L64.03 3.24 L66.59 2.61 L68.65 3.39 L71.19 2.90 L73.58 2.84 L75.77 3.15 L78.23 2.95 L80.24 3.48 L82.57 3.47 L85.02 3.31 L87.75 2.82 L89.89 3.07 L92.02 3.53 L93.95 4.09 L94.91 5.09 L95.64 6.31 L96.93 7.56 L97.20 9.88 L96.74 12.61 L97.08 14.69 L97.03 17.08 L97.41 19.18 L97.26 21.65 L96.76 24.28 L97.56 26.22 L96.55 29.05 L96.90 31.24 L97.32 33.44 L96.57 36.03 L96.99 38.25 L96.41 40.72 L97.22 42.92 L97.34 45.27 L97.09 47.65 L97.49 50.00 L96.76 52.34 L97.25 54.73 L97.12 57.07 L97.10 59.42 L96.94 61.74 L97.42 64.23 L97.55 66.64 L96.97 68.79 L97.19 71.24 L96.49 73.24 L97.23 75.98 L97.16 78.30 L97.54 80.90 L97.34 83.14 L96.78 85.08 L96.88 87.51 L97.17 90.09 L96.19 91.77 L95.79 93.84 L94.64 94.64 L93.53 95.47 L91.80 96.22 L90.18 97.27 L87.30 96.62 L85.05 96.74 L82.82 96.88 L80.81 97.40 L77.92 96.53 L75.82 96.94 L73.53 97.06 L71.35 97.45 L68.95 97.39 L66.61 97.45 L64.02 96.72 L61.72 96.89 L59.36 96.82 L57.12 97.49 L54.76 97.59 L52.33 96.55 L50.00 96.58 L47.67 96.65 L45.33 96.66 L42.95 96.98 L40.58 97.11 L38.32 96.70 L36.09 96.38 L33.58 96.90 L31.26 96.84 L28.81 97.08 L26.24 97.53 L24.03 97.22 L21.79 97.02 L19.37 97.13 L16.97 97.19 L15.10 96.54 L12.08 97.41 L9.81 97.28 L7.49 97.01 L5.86 96.11 L5.15 94.85 L4.26 93.78 L3.73 91.84 L2.87 90.06 L3.44 87.24 L3.45 84.91 L3.31 82.68 L3.37 80.31 L3.18 78.09 L3.51 75.57 L3.58 73.21 L3.41 70.96 L3.48 68.61 L3.17 66.39 L3.59 63.92 L2.53 61.87 L2.85 59.43 L3.45 56.98 L3.32 54.67 L3.20 52.34 L3.18 50.00 L3.49 47.67 L2.55 45.25 L2.37 42.85 L3.04 40.61 L3.02 38.26 L3.52 36.05 L3.49 33.72 L3.19 31.28 L3.28 28.98 L2.62 26.31 L3.39 24.36 L3.53 22.12 L2.51 19.13 L2.97 17.08 L3.37 15.03 L2.96 12.36 L3.47 10.45 L3.32 7.79 L3.72 5.70Z" fill="#151923" mask="url(#sc)"/></g><path d="M178.4 65.28Q178.4 66 177.98 66H157.88Q157.46 66 157.46 65.28Q157.46 64.5 157.88 64.5Q159.8 64.5 160.79 64.08Q161.78 63.66 161.78 62.7Q161.78 61.68 160.4 59.76L153.68 51.06L148.7 44.64L146.6 46.8L144.92 48.54V59.7Q144.92 62.52 146.3 63.51Q147.68 64.5 149.96 64.5H150.68Q151.1 64.5 151.1 65.22Q151.1 66 150.68 66H131.24Q130.82 66 130.82 65.22Q130.82 64.5 131.24 64.5H132.02Q134.3 64.5 135.65 63.48Q137 62.46 137 59.7V28.08Q137 25.26 135.62 24.27Q134.24 23.28 132.02 23.28H131.24Q130.82 23.28 130.82 22.5Q130.82 21.78 131.24 21.78H150.68Q151.16 21.78 151.16 22.5Q151.16 23.28 150.68 23.28H149.96Q147.62 23.28 146.27 24.27Q144.92 25.26 144.92 28.08V45.36Q149.72 40.32 155.03 34.68Q160.34 29.04 161.48 27.72Q162.38 26.64 162.38 25.74Q162.38 24.6 161.12 23.91Q159.86 23.22 157.7 23.22Q157.28 23.22 157.28 22.44Q157.28 21.78 157.7 21.78H175.4Q175.88 21.78 175.88 22.44Q175.88 23.22 175.4 23.22Q169.82 23.22 165.08 27.78Q164.18 28.56 155.36 37.74L154.28 38.82L157.4 42.96Q167.06 56.04 169.4 58.92Q171.26 61.26 172.31 62.31Q173.36 63.36 174.68 63.93Q176 64.5 177.98 64.5Q178.4 64.5 178.4 65.28Z M196.64 52.02V28.08Q196.64 25.26 195.23 24.27Q193.82 23.28 191.54 23.28H190.76Q190.34 23.28 190.34 22.5Q190.34 21.78 190.76 21.78H210.2Q210.62 21.78 210.62 22.5Q210.62 23.28 210.2 23.28H209.48Q207.14 23.28 205.79 24.27Q204.44 25.26 204.44 28.08V49.68Q204.44 53.64 205.1 56.76Q205.76 59.88 208.1 62.16Q210.44 64.44 215.12 64.44Q221.9 64.44 224.36 59.88Q226.82 55.32 226.82 48.42V28.62Q226.82 26.1 225.2 24.66Q223.58 23.22 221.66 23.22H221.06Q220.64 23.22 220.64 22.5Q220.64 21.78 221.06 21.78H235.04Q235.46 21.78 235.46 22.5Q235.46 23.22 235.04 23.22H234.44Q232.52 23.22 230.9 24.66Q229.28 26.1 229.28 28.62L229.16 50.16Q229.16 58.14 225.32 62.46Q221.48 66.78 214.46 66.78Q205.1 66.78 200.87 63.03Q196.64 59.28 196.64 52.02Z M258.38 64.5Q257.6 64.14 256.88 64.14Q256.04 64.14 255.14 64.71Q254.24 65.28 252.98 66.54L250.22 54.78L250.1 54.24Q250.1 54.12 250.25 54Q250.4 53.88 250.55 53.82Q250.7 53.76 250.76 53.7Q250.88 53.64 251.12 53.64Q251.36 53.64 251.78 54.12Q258.5 64.32 268.04 64.32Q271.88 64.32 274.49 62.34Q277.1 60.36 277.1 56.46Q277.1 51.9 272.12 49.68Q269.66 48.6 265.52 47.28Q264.98 47.1 262.82 46.38Q260.66 45.66 258.98 44.82Q251.9 41.22 251.9 34.02Q251.9 31.32 253.16 28.38Q254.42 25.44 257.57 23.31Q260.72 21.18 265.94 21.18Q267.8 21.18 269.57 21.6Q271.34 22.02 273.86 22.86Q274.82 23.22 275.54 23.22Q277.22 23.22 278.9 21.18L281.96 31.56L282.08 31.98Q282.08 32.34 281.54 32.52Q281.18 32.64 281 32.64Q280.7 32.64 280.4 32.28Q279.68 31.08 277.82 29.01Q275.96 26.94 272.81 25.11Q269.66 23.28 265.76 23.28Q262.28 23.28 260.42 24.75Q258.56 26.22 257.96 27.9Q257.36 29.58 257.36 30.78Q257.36 34.62 261.32 36.72Q262.58 37.38 264.65 38.13Q266.72 38.88 268.88 39.6Q273.92 41.22 276.44 42.36Q280.7 44.4 282.5 47.31Q284.3 50.22 284.3 53.58Q284.3 57.3 282.47 60.3Q280.64 63.3 277.1 65.04Q273.56 66.78 268.64 66.78Q264.14 66.78 258.38 64.5Z M343.46 65.28Q343.46 66 343.1 66H323.36Q323.12 66 323.03 65.82Q322.94 65.64 322.94 65.28Q322.94 64.56 323.36 64.56Q326 64.44 327.32 63.87Q328.64 63.3 328.64 61.92Q328.64 61.08 328.04 59.4Q328.04 59.46 326.3 54.42Q325.88 53.34 325.04 50.82H310.1Q308.48 55.26 307.22 59.04Q306.86 59.88 306.86 61.02Q306.86 64.56 312.8 64.56Q313.16 64.56 313.16 65.28Q313.16 66 312.8 66H297.62Q297.38 66 297.29 65.82Q297.2 65.64 297.2 65.28Q297.2 64.56 297.62 64.56Q299.6 64.56 301.37 63.33Q303.14 62.1 304.28 59.34L307.4 51.06Q310.1 44.04 313.25 35.64Q316.4 27.24 318.38 22.08L322.34 20.94Q322.94 20.94 323.12 21.6Q324.98 27.06 330.05 41.67Q335.12 56.28 336.2 59.1Q337.1 61.56 337.97 62.7Q338.84 63.84 339.95 64.2Q341.06 64.56 343.1 64.56Q343.46 64.56 343.46 65.28ZM324.32 48.6 317.78 29.76 310.88 48.6Z M404.3 65.28Q404.3 66 403.88 66H383.78Q383.36 66 383.36 65.28Q383.36 64.5 383.78 64.5Q385.7 64.5 386.69 64.08Q387.68 63.66 387.68 62.7Q387.68 61.68 386.3 59.76L379.58 51.06L374.6 44.64L372.5 46.8L370.82 48.54V59.7Q370.82 62.52 372.2 63.51Q373.58 64.5 375.86 64.5H376.58Q377 64.5 377 65.22Q377 66 376.58 66H357.14Q356.72 66 356.72 65.22Q356.72 64.5 357.14 64.5H357.92Q360.2 64.5 361.55 63.48Q362.9 62.46 362.9 59.7V28.08Q362.9 25.26 361.52 24.27Q360.14 23.28 357.92 23.28H357.14Q356.72 23.28 356.72 22.5Q356.72 21.78 357.14 21.78H376.58Q377.06 21.78 377.06 22.5Q377.06 23.28 376.58 23.28H375.86Q373.52 23.28 372.17 24.27Q370.82 25.26 370.82 28.08V45.36Q375.62 40.32 380.93 34.68Q386.24 29.04 387.38 27.72Q388.28 26.64 388.28 25.74Q388.28 24.6 387.02 23.91Q385.76 23.22 383.6 23.22Q383.18 23.22 383.18 22.44Q383.18 21.78 383.6 21.78H401.3Q401.78 21.78 401.78 22.44Q401.78 23.22 401.3 23.22Q395.72 23.22 390.98 27.78Q390.08 28.56 381.26 37.74L380.18 38.82L383.3 42.96Q392.96 56.04 395.3 58.92Q397.16 61.26 398.21 62.31Q399.26 63.36 400.58 63.93Q401.9 64.5 403.88 64.5Q404.3 64.5 404.3 65.28Z" fill="#151923"/><path d="M134.67 99.25Q133.13 99.25 131.84 98.6Q130.56 97.95 129.79 96.41L131.49 95.45Q132.01 96.32 132.76 96.82Q133.51 97.32 134.74 97.32Q135.97 97.32 136.46 96.87Q136.96 96.43 136.96 95.66Q136.96 95.17 136.74 94.82Q136.53 94.47 135.83 94.16Q135.14 93.86 133.71 93.54Q132.01 93.14 131.2 92.26Q130.38 91.39 130.38 90.04Q130.38 88.97 130.9 88.16Q131.41 87.34 132.35 86.89Q133.29 86.44 134.55 86.44Q136.21 86.44 137.35 87.16Q138.49 87.89 139.08 88.87L137.49 90.09Q137.19 89.67 136.79 89.28Q136.38 88.89 135.84 88.63Q135.3 88.38 134.53 88.38Q133.62 88.38 133.05 88.77Q132.48 89.16 132.48 89.95Q132.48 90.3 132.65 90.63Q132.81 90.95 133.38 91.25Q133.95 91.55 135.14 91.83Q137.24 92.3 138.17 93.24Q139.1 94.19 139.1 95.62Q139.1 97.37 137.88 98.31Q136.66 99.25 134.67 99.25Z M150.07 83.95h7.12v1.49h-7.12z M153.64 99.28Q151.98 99.28 150.67 98.49Q149.37 97.7 148.63 96.26Q147.9 94.82 147.9 92.88Q147.9 90.91 148.63 89.47Q149.37 88.03 150.67 87.23Q151.98 86.44 153.64 86.44Q155.3 86.44 156.59 87.23Q157.88 88.03 158.62 89.47Q159.36 90.91 159.36 92.88Q159.36 94.82 158.62 96.26Q157.88 97.7 156.59 98.49Q155.3 99.28 153.64 99.28ZM153.64 97.32Q154.74 97.32 155.55 96.77Q156.35 96.22 156.8 95.21Q157.25 94.2 157.25 92.88Q157.25 91.53 156.8 90.52Q156.35 89.52 155.55 88.96Q154.74 88.41 153.64 88.41Q152.56 88.41 151.73 88.96Q150.91 89.52 150.46 90.52Q150.02 91.53 150.02 92.88Q150.02 94.2 150.46 95.21Q150.91 96.22 151.73 96.77Q152.56 97.32 153.64 97.32Z M185.26 99.25Q183.72 99.25 182.44 98.6Q181.15 97.95 180.38 96.41L182.08 95.45Q182.6 96.32 183.36 96.82Q184.11 97.32 185.33 97.32Q186.56 97.32 187.06 96.87Q187.56 96.43 187.56 95.66Q187.56 95.17 187.34 94.82Q187.12 94.47 186.43 94.16Q185.74 93.86 184.3 93.54Q182.6 93.14 181.79 92.26Q180.97 91.39 180.97 90.04Q180.97 88.97 181.49 88.16Q182.01 87.34 182.94 86.89Q183.88 86.44 185.14 86.44Q186.8 86.44 187.94 87.16Q189.08 87.89 189.67 88.87L188.08 90.09Q187.78 89.67 187.38 89.28Q186.98 88.89 186.44 88.63Q185.89 88.38 185.12 88.38Q184.21 88.38 183.64 88.77Q183.07 89.16 183.07 89.95Q183.07 90.3 183.24 90.63Q183.41 90.95 183.98 91.25Q184.55 91.55 185.74 91.83Q187.84 92.3 188.76 93.24Q189.69 94.19 189.69 95.62Q189.69 97.37 188.47 98.31Q187.26 99.25 185.26 99.25Z M202.05 99V88.62H198.35V86.75H207.77V88.62H204.09V99Z M221.37 99.23Q219.07 99.23 217.87 98.01Q216.66 96.8 216.66 94.36V86.75H218.71V94.26Q218.71 95.83 219.41 96.54Q220.12 97.25 221.37 97.25Q222.61 97.25 223.31 96.54Q224.01 95.83 224.01 94.26V86.75H226.04V94.36Q226.04 96.8 224.85 98.01Q223.66 99.23 221.37 99.23Z M235.73 99V86.75H239.67Q241.51 86.75 242.85 87.43Q244.19 88.11 244.91 89.48Q245.64 90.84 245.64 92.88Q245.64 94.89 244.91 96.25Q244.19 97.62 242.85 98.31Q241.51 99 239.67 99ZM237.75 97.13H239.51Q241.4 97.13 242.46 96.03Q243.52 94.94 243.52 92.88Q243.52 90.79 242.46 89.71Q241.4 88.62 239.51 88.62H237.75Z M254.86 99V86.75H256.87V99Z M271.84 99.28Q270.17 99.28 268.87 98.49Q267.57 97.7 266.83 96.26Q266.1 94.82 266.1 92.88Q266.1 90.91 266.83 89.47Q267.57 88.03 268.87 87.23Q270.17 86.44 271.84 86.44Q273.5 86.44 274.78 87.23Q276.07 88.03 276.81 89.47Q277.56 90.91 277.56 92.88Q277.56 94.82 276.81 96.26Q276.07 97.7 274.78 98.49Q273.5 99.28 271.84 99.28ZM271.84 97.32Q272.94 97.32 273.74 96.77Q274.55 96.22 274.99 95.21Q275.44 94.2 275.44 92.88Q275.44 91.53 274.99 90.52Q274.55 89.52 273.74 88.96Q272.94 88.41 271.84 88.41Q270.75 88.41 269.93 88.96Q269.11 89.52 268.66 90.52Q268.21 91.53 268.21 92.88Q268.21 94.2 268.66 95.21Q269.11 96.22 269.93 96.77Q270.75 97.32 271.84 97.32Z" fill="#151923"/></svg>
